<?xml version="1.0" encoding="UTF-8"?>
<svg width="60px" height="64px" viewBox="0 0 60 64" version="1.1" xmlns="http://www.w3.org/2000/svg" xmlns:xlink="http://www.w3.org/1999/xlink">
    <!-- Generator: Sketch 47.1 (45422) - http://www.bohemiancoding.com/sketch -->
    <title>ironhack-logo</title>
    <desc>Created with Sketch.</desc>
    <defs></defs>
    <g id="Page-1" stroke="none" stroke-width="1" fill="none" fill-rule="evenodd">
        <g id="ironhack-logo" fill-rule="nonzero">
            <path d="M28.109,63.497 C28.456,63.693 28.766,63.787 29.058,63.859 C29.461,63.961 29.825,63.999 30.173,64 C30.923,64.002 31.623,63.852 32.651,63.262 L57.342,49.805 C59.192,48.744 60,47.634 60,45.511 L60,18.133 C60,16.01 58.703,15.061 56.842,14 L32.032,0.497 C31.8436511,0.382776304 31.6459405,0.284757314 31.441,0.204 C31.0619634,0.0634929732 30.6602014,-0.0056711251 30.256,-1.19657973e-15 C29.632,-1.19657973e-15 29.015,0.003 27.896,0.645 L3.67,13.704 C1.82,14.764 0,16.01 0,18.134 L0.05,45.63 C0.05,47.753 1.597,49.132 3.457,50.194 L28.11,63.497 L28.109,63.497 Z" id="Shape" fill="#AFB1B6"></path>
            <path d="M37.554,21.698 L37.554,30.876 L39.474,30.876 L39.474,23.001 L42.822,29.573 C43.375,30.639 43.87,30.995 44.626,30.995 C45.441,30.995 45.906,30.491 45.906,29.366 L45.906,20.188 L43.986,20.188 L43.986,28.034 L40.639,21.491 C40.115,20.455 39.562,20.1 38.835,20.1 C38.049,20.07 37.555,20.573 37.555,21.698 L37.554,21.698 Z M31.354,30.995 C34.614,30.995 35.546,29.395 35.546,25.547 C35.546,21.669 34.615,20.1 31.355,20.1 C28.066,20.07 27.135,21.669 27.135,25.547 C27.135,29.425 28.066,30.995 31.355,30.995 L31.354,30.995 Z M29.318,25.547 C29.318,23.357 29.376,21.876 31.355,21.876 C33.334,21.876 33.392,23.356 33.392,25.547 C33.392,27.737 33.334,29.218 31.355,29.218 C29.347,29.188 29.318,27.708 29.318,25.548 L29.318,25.547 Z M17.792,20.367 L17.792,30.877 L19.917,30.877 L19.917,26.79 C20.295,26.82 20.761,26.849 21.197,26.849 L23.351,30.875 L25.796,30.875 L23.38,26.582 C24.632,26.197 25.389,25.309 25.389,23.414 C25.389,20.514 23.497,20.069 21.169,20.069 C19.946,20.069 18.695,20.187 17.792,20.365 L17.792,20.367 Z M19.917,25.073 L19.917,21.846 C20.354,21.787 20.848,21.758 21.256,21.758 C22.798,21.758 23.322,22.231 23.322,23.415 C23.322,24.777 22.536,25.133 21.227,25.133 C20.819,25.133 20.412,25.133 19.975,25.073 L19.946,25.073 L19.917,25.073 Z M13.369,30.876 L15.522,30.876 L15.522,20.188 L13.37,20.188 L13.37,30.876 L13.369,30.876 Z M31.552,39.365 C31.552,42.903 32.322,44.44 35.457,44.44 C36.255,44.44 36.967,44.353 37.595,44.237 L37.509,43.57 C36.968,43.657 36.426,43.715 35.885,43.715 C32.806,43.715 32.407,42.294 32.407,39.365 C32.407,36.437 32.749,35.016 35.885,35.016 C36.426,35.016 36.996,35.103 37.509,35.161 L37.595,34.465 C36.8902923,34.3303237 36.1744612,34.2623565 35.457,34.262 C32.322,34.292 31.552,35.828 31.552,39.365 Z M25.965,34.871 L22.403,44.353 L23.258,44.353 L24.341,41.395 L28.759,41.395 L29.842,44.353 L30.726,44.353 L27.19,34.87 C27.048,34.493 26.848,34.29 26.563,34.29 C26.307,34.29 26.135,34.464 25.964,34.87 L25.965,34.871 Z M26.564,35.422 L28.502,40.699 L24.597,40.699 L26.564,35.422 L26.564,35.422 Z M44.806,34.407 L40.274,39.017 L40.274,34.407 L39.448,34.407 L39.448,44.353 L40.274,44.353 L40.274,39.453 L44.892,44.353 L45.975,44.353 L41.101,39.22 L45.833,34.407 L44.806,34.407 L44.806,34.407 Z M19.78,34.407 L19.78,38.902 L14.28,38.902 L14.28,34.407 L13.453,34.407 L13.453,44.353 L14.28,44.353 L14.28,39.626 L19.81,39.626 L19.81,44.353 L20.636,44.353 L20.636,34.407 L19.781,34.407 L19.78,34.407 Z" id="Shape" fill="#FFFFFF"></path>
        </g>
    </g>
</svg>