<?xml version="1.0" encoding="UTF-8"?>
<svg width="385px" height="75px" viewBox="0 0 385 75" version="1.1" xmlns="http://www.w3.org/2000/svg" xmlns:xlink="http://www.w3.org/1999/xlink">
    <!-- Generator: Sketch 47.1 (45422) - http://www.bohemiancoding.com/sketch -->
    <title>logo</title>
    <desc>Created with Sketch.</desc>
    <defs></defs>
    <g id="Page-1" stroke="none" stroke-width="1" fill="none" fill-rule="evenodd">
        <g id="logo" fill="#AFB1B6">
            <path d="M30,70.25 C28.6249931,70.25 27.3750056,70.0416687 26.25,69.625 C25.1249944,69.2083313 24.1197961,68.6458369 23.234375,67.9375 C22.3489539,67.2291631 21.5885448,66.3958381 20.953125,65.4375 C20.3177052,64.4791619 19.7864605,63.4583387 19.359375,62.375 C18.9322895,61.2916613 18.6197927,60.1822973 18.421875,59.046875 C18.2239573,57.9114527 18.125,56.7916722 18.125,55.6875 L18.125,50.59375 C18.125,47.6979022 17.4427152,45.6145897 16.078125,44.34375 C14.7135348,43.0729103 12.6354306,42.4375 9.84375,42.4375 L9.84375,36.9375 C12.6354306,36.9375 14.7135348,36.2968814 16.078125,35.015625 C17.4427152,33.7343686 18.125,31.6354312 18.125,28.71875 L18.125,23.625 C18.125,22.5416613 18.2135408,21.4270891 18.390625,20.28125 C18.5677092,19.1354109 18.8541647,18.0208387 19.25,16.9375 C19.6458353,15.8541613 20.1510386,14.8385464 20.765625,13.890625 C21.3802114,12.9427036 22.1302039,12.1145869 23.015625,11.40625 C23.9010461,10.6979131 24.9218692,10.1354187 26.078125,9.71875 C27.2343808,9.30208125 28.5416594,9.09375 30,9.09375 L30.84375,13.4375 C29.4687431,13.4166666 28.3958372,13.7135386 27.625,14.328125 C26.8541628,14.9427114 26.2916684,15.7395784 25.9375,16.71875 C25.5833316,17.6979216 25.369792,18.7968689 25.296875,20.015625 C25.223958,21.2343811 25.1875,22.4374941 25.1875,23.625 L25.1875,28.71875 C25.1875,31.1979291 24.5937559,33.3958237 23.40625,35.3125 C22.2187441,37.2291762 20.3750125,38.687495 17.875,39.6875 C20.3958459,40.687505 22.2447858,42.1354072 23.421875,44.03125 C24.5989642,45.9270928 25.1875,48.1145709 25.1875,50.59375 L25.1875,55.6875 C25.1875,56.8750059 25.2656242,58.0781189 25.421875,59.296875 C25.5781258,60.5156311 25.8697895,61.6145784 26.296875,62.59375 C26.7239605,63.5729216 27.3020797,64.3697886 28.03125,64.984375 C28.7604203,65.5989614 29.6979109,65.8958334 30.84375,65.875 L30,70.25 Z M58.03125,53.6875 C58.9479213,53.6875 59.8385373,53.5416681 60.703125,53.25 C61.5677127,52.9583319 62.33333,52.5520859 63,52.03125 C63.66667,51.5104141 64.1927064,50.8958369 64.578125,50.1875 C64.9635436,49.4791631 65.1458334,48.7083375 65.125,47.875 L72.1875,47.875 C72.2083334,49.5000081 71.8385455,51.0260345 71.078125,52.453125 C70.3177045,53.8802155 69.2864648,55.1249947 67.984375,56.1875 C66.6822852,57.2500053 65.1770919,58.0937469 63.46875,58.71875 C61.7604081,59.3437531 59.9687594,59.65625 58.09375,59.65625 C55.4895703,59.65625 53.2083431,59.2083378 51.25,58.3125 C49.2916569,57.4166622 47.6562566,56.1927161 46.34375,54.640625 C45.0312434,53.0885339 44.0468783,51.2864686 43.390625,49.234375 C42.7343717,47.1822814 42.40625,45.0000116 42.40625,42.6875 L42.40625,41.5625 C42.40625,39.2499884 42.7343717,37.0625103 43.390625,35 C44.0468783,32.9374897 45.0312434,31.1354244 46.34375,29.59375 C47.6562566,28.0520756 49.2916569,26.8281295 51.25,25.921875 C53.2083431,25.0156205 55.4791537,24.5625 58.0625,24.5625 C60.1041769,24.5625 61.994783,24.8749969 63.734375,25.5 C65.473967,26.1250031 66.973952,26.9999944 68.234375,28.125 C69.494798,29.2500056 70.4739548,30.5937422 71.171875,32.15625 C71.8697952,33.7187578 72.2083334,35.4270741 72.1875,37.28125 L65.125,37.28125 C65.1458334,36.3645787 64.9843767,35.5000041 64.640625,34.6875 C64.2968733,33.8749959 63.8020866,33.1666697 63.15625,32.5625 C62.5104134,31.9583303 61.7500044,31.4791684 60.875,31.125 C59.9999956,30.7708316 59.0416719,30.59375 58,30.59375 C56.4374922,30.59375 55.1354219,30.9114552 54.09375,31.546875 C53.0520781,32.1822948 52.2187531,33.0156198 51.59375,34.046875 C50.9687469,35.0781302 50.526043,36.2499934 50.265625,37.5625 C50.005207,38.8750066 49.875,40.2083266 49.875,41.5625 L49.875,42.6875 C49.875,44.0625069 50.005207,45.4062434 50.265625,46.71875 C50.526043,48.0312566 50.9687469,49.2031198 51.59375,50.234375 C52.2187531,51.2656302 53.0520781,52.0989552 54.09375,52.734375 C55.1354219,53.3697948 56.4479087,53.6875 58.03125,53.6875 Z M103.21875,59 C103.010416,58.5833313 102.838542,58.0937528 102.703125,57.53125 C102.567708,56.9687472 102.447917,56.3645866 102.34375,55.71875 C101.822914,56.2604194 101.234378,56.7656227 100.578125,57.234375 C99.9218717,57.7031273 99.1927123,58.1145816 98.390625,58.46875 C97.5885377,58.8229184 96.723963,59.1041656 95.796875,59.3125 C94.869787,59.5208344 93.8750053,59.625 92.8125,59.625 C91.0208244,59.625 89.4010489,59.3697942 87.953125,58.859375 C86.5052011,58.3489558 85.2656302,57.6406295 84.234375,56.734375 C83.2031198,55.8281205 82.4062528,54.7604228 81.84375,53.53125 C81.2812472,52.3020772 81,50.9687572 81,49.53125 C81,45.9062319 82.3489448,43.1354263 85.046875,41.21875 C87.7448052,39.3020738 91.6145581,38.34375 96.65625,38.34375 L102.125,38.34375 L102.125,36.125 C102.125,34.3333244 101.520839,32.9114636 100.3125,31.859375 C99.1041606,30.8072864 97.3958444,30.28125 95.1875,30.28125 C94.187495,30.28125 93.3125037,30.4010405 92.5625,30.640625 C91.8124963,30.8802095 91.1875025,31.2083313 90.6875,31.625 C90.1874975,32.0416688 89.8125012,32.5312472 89.5625,33.09375 C89.3124988,33.6562528 89.1875,34.2604134 89.1875,34.90625 L81.71875,34.90625 C81.71875,33.5937434 82.0260386,32.3177145 82.640625,31.078125 C83.2552114,29.8385355 84.1562441,28.7343798 85.34375,27.765625 C86.5312559,26.7968702 87.9843664,26.0208363 89.703125,25.4375 C91.4218836,24.8541638 93.3854056,24.5625 95.59375,24.5625 C97.59376,24.5625 99.4479081,24.8072892 101.15625,25.296875 C102.864592,25.7864608 104.343744,26.5156202 105.59375,27.484375 C106.843756,28.4531298 107.822913,29.6614511 108.53125,31.109375 C109.239587,32.5572989 109.59375,34.2499903 109.59375,36.1875 L109.59375,51.25 C109.59375,52.7291741 109.703124,54.0781189 109.921875,55.296875 C110.140626,56.5156311 110.458331,57.5729122 110.875,58.46875 L110.875,59 L103.21875,59 Z M94.21875,53.59375 C95.1770881,53.59375 96.0781208,53.4739595 96.921875,53.234375 C97.7656292,52.9947905 98.5260383,52.6822936 99.203125,52.296875 C99.8802117,51.9114564 100.463539,51.4687525 100.953125,50.96875 C101.442711,50.4687475 101.833332,49.9583359 102.125,49.4375 L102.125,43.09375 L97.375,43.09375 C94.3333181,43.09375 92.0885489,43.5833284 90.640625,44.5625 C89.1927011,45.5416716 88.46875,46.9374909 88.46875,48.75 C88.46875,49.4375034 88.5833322,50.078122 88.8125,50.671875 C89.0416678,51.265628 89.3906227,51.7760395 89.859375,52.203125 C90.3281273,52.6302105 90.9218714,52.9687488 91.640625,53.21875 C92.3593786,53.4687512 93.218745,53.59375 94.21875,53.59375 Z M134.84375,53.6875 C135.760421,53.6875 136.651037,53.5416681 137.515625,53.25 C138.380213,52.9583319 139.14583,52.5520859 139.8125,52.03125 C140.47917,51.5104141 141.005206,50.8958369 141.390625,50.1875 C141.776044,49.4791631 141.958333,48.7083375 141.9375,47.875 L149,47.875 C149.020833,49.5000081 148.651045,51.0260345 147.890625,52.453125 C147.130205,53.8802155 146.098965,55.1249947 144.796875,56.1875 C143.494785,57.2500053 141.989592,58.0937469 140.28125,58.71875 C138.572908,59.3437531 136.781259,59.65625 134.90625,59.65625 C132.30207,59.65625 130.020843,59.2083378 128.0625,58.3125 C126.104157,57.4166622 124.468757,56.1927161 123.15625,54.640625 C121.843743,53.0885339 120.859378,51.2864686 120.203125,49.234375 C119.546872,47.1822814 119.21875,45.0000116 119.21875,42.6875 L119.21875,41.5625 C119.21875,39.2499884 119.546872,37.0625103 120.203125,35 C120.859378,32.9374897 121.843743,31.1354244 123.15625,29.59375 C124.468757,28.0520756 126.104157,26.8281295 128.0625,25.921875 C130.020843,25.0156205 132.291654,24.5625 134.875,24.5625 C136.916677,24.5625 138.807283,24.8749969 140.546875,25.5 C142.286467,26.1250031 143.786452,26.9999944 145.046875,28.125 C146.307298,29.2500056 147.286455,30.5937422 147.984375,32.15625 C148.682295,33.7187578 149.020833,35.4270741 149,37.28125 L141.9375,37.28125 C141.958333,36.3645787 141.796877,35.5000041 141.453125,34.6875 C141.109373,33.8749959 140.614587,33.1666697 139.96875,32.5625 C139.322913,31.9583303 138.562504,31.4791684 137.6875,31.125 C136.812496,30.7708316 135.854172,30.59375 134.8125,30.59375 C133.249992,30.59375 131.947922,30.9114552 130.90625,31.546875 C129.864578,32.1822948 129.031253,33.0156198 128.40625,34.046875 C127.781247,35.0781302 127.338543,36.2499934 127.078125,37.5625 C126.817707,38.8750066 126.6875,40.2083266 126.6875,41.5625 L126.6875,42.6875 C126.6875,44.0625069 126.817707,45.4062434 127.078125,46.71875 C127.338543,48.0312566 127.781247,49.2031198 128.40625,50.234375 C129.031253,51.2656302 129.864578,52.0989552 130.90625,52.734375 C131.947922,53.3697948 133.260409,53.6875 134.84375,53.6875 Z M165.9375,29.875 C167.104173,28.208325 168.526033,26.9062547 170.203125,25.96875 C171.880217,25.0312453 173.74999,24.5625 175.8125,24.5625 C177.562509,24.5625 179.171868,24.8229141 180.640625,25.34375 C182.109382,25.8645859 183.364578,26.6718695 184.40625,27.765625 C185.447922,28.8593805 186.260414,30.2656164 186.84375,31.984375 C187.427086,33.7031336 187.71875,35.7604047 187.71875,38.15625 L187.71875,59 L180.25,59 L180.25,38.09375 C180.25,36.8020769 180.088543,35.692713 179.765625,34.765625 C179.442707,33.838537 178.984378,33.0729197 178.390625,32.46875 C177.796872,31.8645803 177.072921,31.4166681 176.21875,31.125 C175.364579,30.8333319 174.395839,30.6875 173.3125,30.6875 C171.687492,30.6875 170.250006,31.0260383 169,31.703125 C167.749994,32.3802117 166.729171,33.2916609 165.9375,34.4375 L165.9375,59 L158.46875,59 L158.46875,11 L165.9375,11 L165.9375,29.875 Z M198.5,25.1875 L216.53125,25.1875 L216.53125,52.8125 L226.5625,52.8125 L226.5625,59 L198.5,59 L198.5,52.8125 L209,52.8125 L209,31.40625 L198.5,31.40625 L198.5,25.1875 Z M208.375,16.4375 C208.375,15.2708275 208.749996,14.3072955 209.5,13.546875 C210.250004,12.7864545 211.302077,12.40625 212.65625,12.40625 C214.031257,12.40625 215.098955,12.7864545 215.859375,13.546875 C216.619795,14.3072955 217,15.2708275 217,16.4375 C217,17.6041725 216.619795,18.5677045 215.859375,19.328125 C215.098955,20.0885455 214.031257,20.46875 212.65625,20.46875 C211.302077,20.46875 210.250004,20.0885455 209.5,19.328125 C208.749996,18.5677045 208.375,17.6041725 208.375,16.4375 Z M250.25,17 L250.25,25.1875 L263.03125,25.1875 L263.03125,30.75 L250.25,30.75 L250.25,46.96875 C250.25,48.2395897 250.40104,49.2916625 250.703125,50.125 C251.00521,50.9583375 251.427081,51.6249975 251.96875,52.125 C252.510419,52.6250025 253.14583,52.9739573 253.875,53.171875 C254.60417,53.3697927 255.406246,53.46875 256.28125,53.46875 C256.927087,53.46875 257.598955,53.432292 258.296875,53.359375 C258.994795,53.286458 259.671872,53.2031255 260.328125,53.109375 C260.984378,53.0156245 261.588539,52.9114589 262.140625,52.796875 C262.692711,52.6822911 263.156248,52.5729172 263.53125,52.46875 L264.375,57.625 C263.833331,57.9375016 263.182295,58.223957 262.421875,58.484375 C261.661455,58.744793 260.833338,58.9583325 259.9375,59.125 C259.041662,59.2916675 258.10938,59.4218745 257.140625,59.515625 C256.17187,59.6093755 255.218755,59.65625 254.28125,59.65625 C252.593742,59.65625 251.046882,59.4218773 249.640625,58.953125 C248.234368,58.4843727 247.026047,57.7552133 246.015625,56.765625 C245.005203,55.7760367 244.213545,54.5052161 243.640625,52.953125 C243.067705,51.4010339 242.78125,49.5416775 242.78125,47.375 L242.78125,30.75 L234.53125,30.75 L234.53125,25.1875 L242.78125,25.1875 L242.78125,17 L250.25,17 Z M272.3125,41.78125 C272.3125,39.3437378 272.671871,37.0729272 273.390625,34.96875 C274.109379,32.8645728 275.140618,31.0416744 276.484375,29.5 C277.828132,27.9583256 279.46874,26.7500044 281.40625,25.875 C283.34376,24.9999956 285.541654,24.5625 288,24.5625 C290.479179,24.5625 292.692699,24.9999956 294.640625,25.875 C296.588551,26.7500044 298.234368,27.9583256 299.578125,29.5 C300.921882,31.0416744 301.947913,32.8645728 302.65625,34.96875 C303.364587,37.0729272 303.71875,39.3437378 303.71875,41.78125 L303.71875,42.4375 C303.71875,44.8958456 303.364587,47.1770728 302.65625,49.28125 C301.947913,51.3854272 300.921882,53.2031173 299.578125,54.734375 C298.234368,56.2656327 296.59376,57.4687456 294.65625,58.34375 C292.71874,59.2187544 290.520846,59.65625 288.0625,59.65625 C285.583321,59.65625 283.369801,59.2187544 281.421875,58.34375 C279.473949,57.4687456 277.828132,56.2656327 276.484375,54.734375 C275.140618,53.2031173 274.109379,51.3854272 273.390625,49.28125 C272.671871,47.1770728 272.3125,44.8958456 272.3125,42.4375 L272.3125,41.78125 Z M279.78125,42.4375 C279.78125,43.9791744 279.942707,45.4270766 280.265625,46.78125 C280.588543,48.1354234 281.088538,49.3281198 281.765625,50.359375 C282.442712,51.3906302 283.302078,52.203122 284.34375,52.796875 C285.385422,53.390628 286.624993,53.6875 288.0625,53.6875 C289.45834,53.6875 290.67187,53.390628 291.703125,52.796875 C292.73438,52.203122 293.588538,51.3906302 294.265625,50.359375 C294.942712,49.3281198 295.442707,48.1354234 295.765625,46.78125 C296.088543,45.4270766 296.25,43.9791744 296.25,42.4375 L296.25,41.78125 C296.25,40.2812425 296.088543,38.8541734 295.765625,37.5 C295.442707,36.1458266 294.942712,34.9583384 294.265625,33.9375 C293.588538,32.9166616 292.73438,32.1041697 291.703125,31.5 C290.67187,30.8958303 289.437507,30.59375 288,30.59375 C286.583326,30.59375 285.354172,30.8958303 284.3125,31.5 C283.270828,32.1041697 282.41667,32.9166616 281.75,33.9375 C281.08333,34.9583384 280.588543,36.1458266 280.265625,37.5 C279.942707,38.8541734 279.78125,40.2812425 279.78125,41.78125 L279.78125,42.4375 Z M334.125,49.84375 C334.125,49.2812472 334.010418,48.7656273 333.78125,48.296875 C333.552082,47.8281227 333.140628,47.4010436 332.546875,47.015625 C331.953122,46.6302064 331.14063,46.270835 330.109375,45.9375 C329.07812,45.604165 327.760425,45.2812516 326.15625,44.96875 C324.15624,44.5520813 322.348966,44.0520863 320.734375,43.46875 C319.119784,42.8854137 317.734381,42.1875041 316.578125,41.375 C315.421869,40.5624959 314.531253,39.619797 313.90625,38.546875 C313.281247,37.473953 312.96875,36.2291738 312.96875,34.8125 C312.96875,33.4374931 313.291663,32.1302145 313.9375,30.890625 C314.583337,29.6510355 315.505202,28.5625047 316.703125,27.625 C317.901048,26.6874953 319.359366,25.9427111 321.078125,25.390625 C322.796884,24.8385389 324.718739,24.5625 326.84375,24.5625 C329.093761,24.5625 331.109366,24.8437472 332.890625,25.40625 C334.671884,25.9687528 336.177077,26.7343702 337.40625,27.703125 C338.635423,28.6718798 339.578122,29.8124934 340.234375,31.125 C340.890628,32.4375066 341.21875,33.8437425 341.21875,35.34375 L333.75,35.34375 C333.75,34.67708 333.604168,34.0364614 333.3125,33.421875 C333.020832,32.8072886 332.583336,32.2604191 332,31.78125 C331.416664,31.3020809 330.692713,30.9218764 329.828125,30.640625 C328.963537,30.3593736 327.968756,30.21875 326.84375,30.21875 C325.718744,30.21875 324.744796,30.3385405 323.921875,30.578125 C323.098954,30.8177095 322.416669,31.1302064 321.875,31.515625 C321.333331,31.9010436 320.932293,32.3541641 320.671875,32.875 C320.411457,33.3958359 320.28125,33.9374972 320.28125,34.5 C320.28125,35.0625028 320.380207,35.5729144 320.578125,36.03125 C320.776043,36.4895856 321.145831,36.9062481 321.6875,37.28125 C322.229169,37.6562519 322.979162,37.9947902 323.9375,38.296875 C324.895838,38.5989598 326.135409,38.8854153 327.65625,39.15625 C329.781261,39.5312519 331.6927,39.9999972 333.390625,40.5625 C335.08855,41.1250028 336.536452,41.8124959 337.734375,42.625 C338.932298,43.4375041 339.854163,44.4010361 340.5,45.515625 C341.145837,46.6302139 341.46875,47.9374925 341.46875,49.4375 C341.46875,50.9375075 341.125003,52.3124938 340.4375,53.5625 C339.749997,54.8125062 338.77084,55.8906205 337.5,56.796875 C336.22916,57.7031295 334.703134,58.4062475 332.921875,58.90625 C331.140616,59.4062525 329.145844,59.65625 326.9375,59.65625 C324.479154,59.65625 322.312509,59.3281283 320.4375,58.671875 C318.562491,58.0156217 316.98959,57.1562553 315.71875,56.09375 C314.44791,55.0312447 313.484378,53.8229234 312.828125,52.46875 C312.171872,51.1145766 311.84375,49.7395903 311.84375,48.34375 L319.09375,48.34375 C319.15625,49.3854219 319.427081,50.2708297 319.90625,51 C320.385419,51.7291703 320.999996,52.3177061 321.75,52.765625 C322.500004,53.2135439 323.333329,53.5364573 324.25,53.734375 C325.166671,53.9322927 326.093745,54.03125 327.03125,54.03125 C329.343762,54.03125 331.104161,53.6406289 332.3125,52.859375 C333.520839,52.0781211 334.125,51.0729228 334.125,49.84375 Z M355.875,65.875 C357.020839,65.8958334 357.95833,65.5989614 358.6875,64.984375 C359.41667,64.3697886 359.989581,63.5729216 360.40625,62.59375 C360.822919,61.6145784 361.114582,60.5156311 361.28125,59.296875 C361.447918,58.0781189 361.53125,56.8750059 361.53125,55.6875 L361.53125,50.59375 C361.53125,48.1562378 362.104161,45.9843845 363.25,44.078125 C364.395839,42.1718655 366.187488,40.7083384 368.625,39.6875 C366.187488,38.6666616 364.395839,37.1979263 363.25,35.28125 C362.104161,33.3645737 361.53125,31.1770956 361.53125,28.71875 L361.53125,23.625 C361.53125,22.4374941 361.494792,21.2343811 361.421875,20.015625 C361.348958,18.7968689 361.135418,17.6979216 360.78125,16.71875 C360.427082,15.7395784 359.864587,14.9427114 359.09375,14.328125 C358.322913,13.7135386 357.250007,13.4166666 355.875,13.4375 L356.71875,9.09375 C358.177091,9.09375 359.484369,9.30208125 360.640625,9.71875 C361.796881,10.1354187 362.817704,10.6979131 363.703125,11.40625 C364.588546,12.1145869 365.338539,12.9427036 365.953125,13.890625 C366.567711,14.8385464 367.072915,15.8541613 367.46875,16.9375 C367.864585,18.0208387 368.151041,19.1354109 368.328125,20.28125 C368.505209,21.4270891 368.59375,22.5416613 368.59375,23.625 L368.59375,28.71875 C368.59375,31.6354312 369.270827,33.7343686 370.625,35.015625 C371.979173,36.2968814 374.062486,36.9375 376.875,36.9375 L376.875,42.4375 C374.062486,42.4375 371.979173,43.0729103 370.625,44.34375 C369.270827,45.6145897 368.59375,47.6979022 368.59375,50.59375 L368.59375,55.6875 C368.59375,56.7708387 368.494793,57.8854109 368.296875,59.03125 C368.098957,60.1770891 367.78646,61.2916613 367.359375,62.375 C366.93229,63.4583387 366.401045,64.4791619 365.765625,65.4375 C365.130205,66.3958381 364.369796,67.2291631 363.484375,67.9375 C362.598954,68.6458369 361.593756,69.2083313 360.46875,69.625 C359.343744,70.0416687 358.093757,70.25 356.71875,70.25 L355.875,65.875 Z" id="{cachitos}"></path>
        </g>
    </g>
</svg>