<?xml version="1.0" encoding="UTF-8"?>
<svg width="80px" height="80px" viewBox="0 0 80 80" version="1.1" xmlns="http://www.w3.org/2000/svg" xmlns:xlink="http://www.w3.org/1999/xlink">
    <!-- Generator: Sketch 47.1 (45422) - http://www.bohemiancoding.com/sketch -->
    <title>logout-icon</title>
    <desc>Created with Sketch.</desc>
    <defs></defs>
    <g id="Page-1" stroke="none" stroke-width="1" fill="none" fill-rule="evenodd">
        <g id="logout-icon" fill-rule="nonzero" fill="#FFFFFF">
            <path d="M13.8370491,13.8370491 C-0.612349699,28.2864479 -0.612349699,51.7135521 13.8370491,66.1629509 C28.2864479,80.6123497 51.7135521,80.6123497 66.1629509,66.1629509 C80.6123497,51.7135521 80.6123497,28.2864479 66.1629509,13.8370491 C64.6008537,12.2749519 62.0681938,12.2749519 60.5060967,13.8370491 C58.9439995,15.3991463 58.9439995,17.9318062 60.5060967,19.4939033 C71.8313011,30.8191078 71.8313011,49.1808922 60.5060967,60.5060967 C49.1808922,71.8313011 30.8191078,71.8313011 19.4939033,60.5060967 C8.16869888,49.1808922 8.16869888,30.8191078 19.4939033,19.4939033 C21.0560005,17.9318062 21.0560005,15.3991463 19.4939033,13.8370491 C17.9318062,12.2749519 15.3991463,12.2749519 13.8370491,13.8370491 Z" id="Oval"></path>
            <path d="M36.5,5.5 L36.5,38.515148 C36.5,40.724287 38.290861,42.515148 40.5,42.515148 C42.709139,42.515148 44.5,40.724287 44.5,38.515148 L44.5,5.5 C44.5,3.290861 42.709139,1.5 40.5,1.5 C38.290861,1.5 36.5,3.290861 36.5,5.5 Z" id="Line"></path>
        </g>
    </g>
</svg>